<?xml version="1.0" encoding="UTF-8" standalone="no"?>
<!DOCTYPE svg PUBLIC "-//W3C//DTD SVG 1.1//EN" "http://www.w3.org/Graphics/SVG/1.1/DTD/svg11.dtd">
<svg width="100%" height="100%" viewBox="0 0 394 398" version="1.1" xmlns="http://www.w3.org/2000/svg" xmlns:xlink="http://www.w3.org/1999/xlink" xml:space="preserve" xmlns:serif="http://www.serif.com/" style="fill-rule:evenodd;clip-rule:evenodd;stroke-linejoin:round;stroke-miterlimit:2;">
    <g transform="matrix(1,0,0,1,-343.059,-341.23)">
        <g transform="matrix(9.08794e-17,-1.48417,1.48417,9.08794e-17,-157.774,826.879)">
            <path d="M65.418,476.085C61.547,472.285 59.366,467.087 59.366,461.662C59.366,437.108 59.366,366.308 59.366,344.156C59.366,342.377 60.072,340.671 61.33,339.413C62.588,338.156 64.294,337.449 66.073,337.449L183.796,337.449C189.093,337.449 194.178,339.528 197.957,343.238C220.173,365.049 298.69,442.135 321.166,464.201C325.037,468.002 327.218,473.2 327.218,478.625C327.218,503.168 327.218,573.914 327.218,596.1C327.218,597.887 326.509,599.601 325.245,600.864C323.981,602.128 322.268,602.838 320.481,602.838L202.788,602.838C197.491,602.838 192.406,600.759 188.627,597.048C166.411,575.238 87.894,498.152 65.418,476.085Z" style="fill:white;"/>
        </g>
    </g>
</svg>
